<?xml version="1.0" encoding="UTF-8" standalone="no"?>
<!DOCTYPE svg PUBLIC "-//W3C//DTD SVG 1.1//EN"
 "http://www.w3.org/Graphics/SVG/1.1/DTD/svg11.dtd">
<!-- Generated by graphviz version 2.40.1 (20161225.0304)
 -->
<!-- Title: %3 Pages: 1 -->
<svg width="190pt" height="212pt"
 viewBox="0.00 0.00 190.00 212.00" xmlns="http://www.w3.org/2000/svg" xmlns:xlink="http://www.w3.org/1999/xlink">
<g id="graph0" class="graph" transform="scale(1 1) rotate(0) translate(4 208)">
<title>%3</title>
<polygon fill="#ffffff" stroke="transparent" points="-4,4 -4,-208 186,-208 186,4 -4,4"/>
<!-- C -->
<g id="node1" class="node">
<title>C</title>
<ellipse fill="#ffa500" stroke="#ffa500" cx="111" cy="-182" rx="27" ry="18"/>
<ellipse fill="none" stroke="#ffa500" cx="111" cy="-182" rx="31" ry="22"/>
<text text-anchor="middle" x="111" y="-178.3" font-family="Times,serif" font-size="14.00" fill="#000000">C</text>
</g>
<!-- A -->
<g id="node2" class="node">
<title>A</title>
<ellipse fill="#ffa500" stroke="#ffa500" cx="71" cy="-102" rx="27" ry="18"/>
<ellipse fill="none" stroke="#ffa500" cx="71" cy="-102" rx="31" ry="22"/>
<text text-anchor="middle" x="71" y="-98.3" font-family="Times,serif" font-size="14.00" fill="#000000">A</text>
</g>
<!-- C&#45;&gt;A -->
<g id="edge1" class="edge">
<title>C&#45;&gt;A</title>
<path fill="none" stroke="#ffa500" d="M100.4905,-160.9809C96.035,-152.07 90.7615,-141.5231 85.9148,-131.8296"/>
<polygon fill="#ffa500" stroke="#ffa500" points="89.042,-130.2577 81.4393,-122.8787 82.781,-133.3882 89.042,-130.2577"/>
</g>
<!-- E -->
<g id="node3" class="node">
<title>E</title>
<ellipse fill="#add8e6" stroke="#add8e6" cx="151" cy="-102" rx="27" ry="18"/>
<ellipse fill="none" stroke="#add8e6" cx="151" cy="-102" rx="31" ry="22"/>
<text text-anchor="middle" x="151" y="-98.3" font-family="Times,serif" font-size="14.00" fill="#000000">E</text>
</g>
<!-- C&#45;&gt;E -->
<g id="edge2" class="edge">
<title>C&#45;&gt;E</title>
<path fill="none" stroke="#add8e6" d="M121.5095,-160.9809C125.965,-152.07 131.2385,-141.5231 136.0852,-131.8296"/>
<polygon fill="#add8e6" stroke="#add8e6" points="139.219,-133.3882 140.5607,-122.8787 132.958,-130.2577 139.219,-133.3882"/>
</g>
<!-- B -->
<g id="node4" class="node">
<title>B</title>
<ellipse fill="#add8e6" stroke="#add8e6" cx="31" cy="-22" rx="27" ry="18"/>
<ellipse fill="none" stroke="#add8e6" cx="31" cy="-22" rx="31" ry="22"/>
<text text-anchor="middle" x="31" y="-18.3" font-family="Times,serif" font-size="14.00" fill="#000000">B</text>
</g>
<!-- A&#45;&gt;B -->
<g id="edge3" class="edge">
<title>A&#45;&gt;B</title>
<path fill="none" stroke="#add8e6" d="M60.4905,-80.9809C56.035,-72.07 50.7615,-61.5231 45.9148,-51.8296"/>
<polygon fill="#add8e6" stroke="#add8e6" points="49.042,-50.2577 41.4393,-42.8787 42.781,-53.3882 49.042,-50.2577"/>
</g>
<!-- D -->
<g id="node5" class="node">
<title>D</title>
<ellipse fill="#add8e6" stroke="#add8e6" cx="111" cy="-22" rx="27" ry="18"/>
<ellipse fill="none" stroke="#add8e6" cx="111" cy="-22" rx="31" ry="22"/>
<text text-anchor="middle" x="111" y="-18.3" font-family="Times,serif" font-size="14.00" fill="#000000">D</text>
</g>
<!-- A&#45;&gt;D -->
<g id="edge4" class="edge">
<title>A&#45;&gt;D</title>
<path fill="none" stroke="#ffa500" d="M81.5095,-80.9809C85.965,-72.07 91.2385,-61.5231 96.0852,-51.8296"/>
<polygon fill="#ffa500" stroke="#ffa500" points="99.219,-53.3882 100.5607,-42.8787 92.958,-50.2577 99.219,-53.3882"/>
</g>
</g>
</svg>
