<svg version="1.1" xmlns="http://www.w3.org/2000/svg" xmlns:xlink="http://www.w3.org/1999/xlink" width="978" height="688"><defs><clipPath id="TyVMTxCBzxFA"><path fill="none" stroke="none" d=" M 0 0 L 978 0 L 978 688 L 0 688 L 0 0 Z"/></clipPath></defs><g transform="scale(1,1)" clip-path="url(#TyVMTxCBzxFA)"><g><rect fill="rgb(255,255,255)" stroke="none" x="0" y="0" width="978" height="688" fill-opacity="1"/><path fill="none" stroke="rgb(0,0,0)" paint-order="fill stroke markers" d=" M 111.5 2.5 L 111.5 688.5" stroke-opacity="1" stroke-miterlimit="10"/><path fill="none" stroke="rgb(0,0,0)" paint-order="fill stroke markers" d=" M 111.5 1.5 L 107.5 5.5" stroke-opacity="1" stroke-miterlimit="10"/><path fill="none" stroke="rgb(0,0,0)" paint-order="fill stroke markers" d=" M 111.5 1.5 L 115.5 5.5" stroke-opacity="1" stroke-miterlimit="10"/><path fill="none" stroke="rgb(0,0,0)" paint-order="fill stroke markers" d=" M 0.5 605.5 L 976.5 605.5" stroke-opacity="1" stroke-miterlimit="10"/><path fill="none" stroke="rgb(0,0,0)" paint-order="fill stroke markers" d=" M 977.5 605.5 L 973.5 601.5" stroke-opacity="1" stroke-miterlimit="10"/><path fill="none" stroke="rgb(0,0,0)" paint-order="fill stroke markers" d=" M 977.5 605.5 L 973.5 609.5" stroke-opacity="1" stroke-miterlimit="10"/><path fill="none" stroke="rgb(0,0,0)" paint-order="fill stroke markers" d=" M 739 189 L 739 605.3801732418729" stroke-opacity="1" stroke-linejoin="round" stroke-miterlimit="10" stroke-width="2.5" stroke-dasharray="6.5,4"/><path fill="none" stroke="rgb(0,0,0)" paint-order="fill stroke markers" d=" M 739 189 L 111.40809155290316 189" stroke-opacity="0.6980392156862745" stroke-linejoin="round" stroke-miterlimit="10" stroke-width="2.5" stroke-dasharray="6.5,4"/><path fill="none" stroke="rgb(0,0,0)" paint-order="fill stroke markers" d=" M 111.40809155290316 605.3801732418729 L 724.8341942711436 198.39840135620415" stroke-opacity="0.6980392156862745" stroke-linecap="round" stroke-linejoin="round" stroke-miterlimit="10" stroke-width="2.5"/><path fill="rgb(0,0,0)" stroke="none" paint-order="stroke fill markers" fill-rule="evenodd" d=" M 739 189 L 727.1837946101946 201.93985278841825 L 722.4845939320926 194.85694992399004 Z" fill-opacity="0.6980392156862745"/><path fill="rgb(77,77,255)" stroke="none" paint-order="stroke fill markers" d=" M 744 189 C 744 191.76142374915398 741.761423749154 194 739 194 C 736.238576250846 194 734 191.76142374915398 734 189 C 734 186.23857625084602 736.238576250846 184 739 184 C 741.761423749154 184 744 186.23857625084602 744 189 Z" fill-opacity="1"/><path fill="none" stroke="rgb(0,0,0)" paint-order="fill stroke markers" d=" M 744 189 C 744 191.76142374915398 741.761423749154 194 739 194 C 736.238576250846 194 734 191.76142374915398 734 189 C 734 186.23857625084602 736.238576250846 184 739 184 C 741.761423749154 184 744 186.23857625084602 744 189 Z" stroke-opacity="1" stroke-linecap="round" stroke-linejoin="round" stroke-miterlimit="10"/><text fill="rgb(77,77,255)" stroke="none" font-family="geogebra-sans-serif, sans-serif" font-size="16px" font-style="normal" font-weight="normal" text-decoration="normal" x="743" y="179" text-anchor="start" dominant-baseline="alphabetic" fill-opacity="1">Z:a+bi</text><text fill="none" stroke="rgb(255,255,255)" font-family="geogebra-sans-serif, sans-serif" font-size="16px" font-style="normal" font-weight="normal" text-decoration="normal" x="743" y="179" text-anchor="start" dominant-baseline="alphabetic" stroke-opacity="1" stroke-linejoin="bevel" stroke-miterlimit="10" stroke-width="3">Z:a+bi</text><text fill="rgb(77,77,255)" stroke="none" font-family="geogebra-sans-serif, sans-serif" font-size="16px" font-style="normal" font-weight="normal" text-decoration="normal" x="743" y="179" text-anchor="start" dominant-baseline="alphabetic" fill-opacity="1">Z:a+bi</text><path fill="rgb(77,77,255)" stroke="none" paint-order="stroke fill markers" d=" M 744 605.3801732418729 C 744 608.1415969910269 741.761423749154 610.3801732418729 739 610.3801732418729 C 736.238576250846 610.3801732418729 734 608.1415969910269 734 605.3801732418729 C 734 602.6187494927188 736.238576250846 600.3801732418729 739 600.3801732418729 C 741.761423749154 600.3801732418729 744 602.6187494927188 744 605.3801732418729 Z" fill-opacity="1"/><path fill="none" stroke="rgb(0,0,0)" paint-order="fill stroke markers" d=" M 744 605.3801732418729 C 744 608.1415969910269 741.761423749154 610.3801732418729 739 610.3801732418729 C 736.238576250846 610.3801732418729 734 608.1415969910269 734 605.3801732418729 C 734 602.6187494927188 736.238576250846 600.3801732418729 739 600.3801732418729 C 741.761423749154 600.3801732418729 744 602.6187494927188 744 605.3801732418729 Z" stroke-opacity="1" stroke-linecap="round" stroke-linejoin="round" stroke-miterlimit="10"/><text fill="rgb(77,77,255)" stroke="none" font-family="geogebra-sans-serif, sans-serif" font-size="16px" font-style="normal" font-weight="normal" text-decoration="normal" x="735" y="624" text-anchor="start" dominant-baseline="alphabetic" fill-opacity="1">a</text><text fill="none" stroke="rgb(255,255,255)" font-family="geogebra-sans-serif, sans-serif" font-size="16px" font-style="normal" font-weight="normal" text-decoration="normal" x="735" y="624" text-anchor="start" dominant-baseline="alphabetic" stroke-opacity="1" stroke-linejoin="bevel" stroke-miterlimit="10" stroke-width="3">a</text><text fill="rgb(77,77,255)" stroke="none" font-family="geogebra-sans-serif, sans-serif" font-size="16px" font-style="normal" font-weight="normal" text-decoration="normal" x="735" y="624" text-anchor="start" dominant-baseline="alphabetic" fill-opacity="1">a</text><path fill="rgb(125,125,255)" stroke="none" paint-order="stroke fill markers" d=" M 116.40809155290316 189 C 116.40809155290316 191.76142374915398 114.16951530205712 194 111.40809155290316 194 C 108.6466678037492 194 106.40809155290316 191.76142374915398 106.40809155290316 189 C 106.40809155290316 186.23857625084602 108.6466678037492 184 111.40809155290316 184 C 114.16951530205712 184 116.40809155290316 186.23857625084602 116.40809155290316 189 Z" fill-opacity="1"/><path fill="none" stroke="rgb(0,0,0)" paint-order="fill stroke markers" d=" M 116.40809155290316 189 C 116.40809155290316 191.76142374915398 114.16951530205712 194 111.40809155290316 194 C 108.6466678037492 194 106.40809155290316 191.76142374915398 106.40809155290316 189 C 106.40809155290316 186.23857625084602 108.6466678037492 184 111.40809155290316 184 C 114.16951530205712 184 116.40809155290316 186.23857625084602 116.40809155290316 189 Z" stroke-opacity="1" stroke-linecap="round" stroke-linejoin="round" stroke-miterlimit="10"/><text fill="rgb(125,125,255)" stroke="none" font-family="geogebra-sans-serif, sans-serif" font-size="16px" font-style="normal" font-weight="normal" text-decoration="normal" x="92" y="192" text-anchor="start" dominant-baseline="alphabetic" fill-opacity="1">b</text><text fill="none" stroke="rgb(255,255,255)" font-family="geogebra-sans-serif, sans-serif" font-size="16px" font-style="normal" font-weight="normal" text-decoration="normal" x="92" y="192" text-anchor="start" dominant-baseline="alphabetic" stroke-opacity="1" stroke-linejoin="bevel" stroke-miterlimit="10" stroke-width="3">b</text><text fill="rgb(125,125,255)" stroke="none" font-family="geogebra-sans-serif, sans-serif" font-size="16px" font-style="normal" font-weight="normal" text-decoration="normal" x="92" y="192" text-anchor="start" dominant-baseline="alphabetic" fill-opacity="1">b</text><path fill="rgb(68,68,68)" stroke="none" paint-order="stroke fill markers" d=" M 116.40809155290316 605.3801732418729 C 116.40809155290316 608.1415969910269 114.16951530205712 610.3801732418729 111.40809155290316 610.3801732418729 C 108.6466678037492 610.3801732418729 106.40809155290316 608.1415969910269 106.40809155290316 605.3801732418729 C 106.40809155290316 602.6187494927188 108.6466678037492 600.3801732418729 111.40809155290316 600.3801732418729 C 114.16951530205712 600.3801732418729 116.40809155290316 602.6187494927188 116.40809155290316 605.3801732418729 Z" fill-opacity="1"/><path fill="none" stroke="rgb(0,0,0)" paint-order="fill stroke markers" d=" M 116.40809155290316 605.3801732418729 C 116.40809155290316 608.1415969910269 114.16951530205712 610.3801732418729 111.40809155290316 610.3801732418729 C 108.6466678037492 610.3801732418729 106.40809155290316 608.1415969910269 106.40809155290316 605.3801732418729 C 106.40809155290316 602.6187494927188 108.6466678037492 600.3801732418729 111.40809155290316 600.3801732418729 C 114.16951530205712 600.3801732418729 116.40809155290316 602.6187494927188 116.40809155290316 605.3801732418729 Z" stroke-opacity="1" stroke-linecap="round" stroke-linejoin="round" stroke-miterlimit="10"/><text fill="rgb(68,68,68)" stroke="none" font-family="geogebra-sans-serif, sans-serif" font-size="16px" font-style="normal" font-weight="normal" text-decoration="normal" x="91" y="625" text-anchor="start" dominant-baseline="alphabetic" fill-opacity="1">O</text><text fill="none" stroke="rgb(255,255,255)" font-family="geogebra-sans-serif, sans-serif" font-size="16px" font-style="normal" font-weight="normal" text-decoration="normal" x="91" y="625" text-anchor="start" dominant-baseline="alphabetic" stroke-opacity="1" stroke-linejoin="bevel" stroke-miterlimit="10" stroke-width="3">O</text><text fill="rgb(68,68,68)" stroke="none" font-family="geogebra-sans-serif, sans-serif" font-size="16px" font-style="normal" font-weight="normal" text-decoration="normal" x="91" y="625" text-anchor="start" dominant-baseline="alphabetic" fill-opacity="1">O</text></g></g></svg>