<svg version="1.1" xmlns="http://www.w3.org/2000/svg" xmlns:xlink="http://www.w3.org/1999/xlink" width="978" height="584"><defs><clipPath id="mVuiDNfgBikb"><path fill="none" stroke="none" d=" M 0 0 L 978 0 L 978 584 L 0 584 L 0 0 Z"/></clipPath></defs><g transform="scale(1,1)" clip-path="url(#mVuiDNfgBikb)"><g><rect fill="rgb(255,255,255)" stroke="none" x="0" y="0" width="978" height="584" fill-opacity="1"/><path fill="none" stroke="rgb(192,192,192)" paint-order="fill stroke markers" d=" M 39.5 0.5 L 39.5 584.5 M 39.5 0.5 L 39.5 584.5 M 89.5 0.5 L 89.5 584.5 M 139.5 0.5 L 139.5 584.5 M 189.5 0.5 L 189.5 584.5 M 239.5 0.5 L 239.5 584.5 M 289.5 0.5 L 289.5 584.5 M 339.5 0.5 L 339.5 584.5 M 389.5 0.5 L 389.5 584.5 M 439.5 0.5 L 439.5 584.5 M 489.5 0.5 L 489.5 584.5 M 539.5 0.5 L 539.5 584.5 M 589.5 0.5 L 589.5 584.5 M 639.5 0.5 L 639.5 584.5 M 689.5 0.5 L 689.5 584.5 M 739.5 0.5 L 739.5 584.5 M 789.5 0.5 L 789.5 584.5 M 839.5 0.5 L 839.5 584.5 M 889.5 0.5 L 889.5 584.5 M 939.5 0.5 L 939.5 584.5" stroke-opacity="1" stroke-linecap="round" stroke-linejoin="round" stroke-miterlimit="10"/><path fill="none" stroke="rgb(192,192,192)" paint-order="fill stroke markers" d=" M 9.5 0.5 L 9.5 584.5 M 19.5 0.5 L 19.5 584.5 M 29.5 0.5 L 29.5 584.5 M 49.5 0.5 L 49.5 584.5 M 59.5 0.5 L 59.5 584.5 M 69.5 0.5 L 69.5 584.5 M 79.5 0.5 L 79.5 584.5 M 99.5 0.5 L 99.5 584.5 M 109.5 0.5 L 109.5 584.5 M 119.5 0.5 L 119.5 584.5 M 129.5 0.5 L 129.5 584.5 M 149.5 0.5 L 149.5 584.5 M 159.5 0.5 L 159.5 584.5 M 169.5 0.5 L 169.5 584.5 M 179.5 0.5 L 179.5 584.5 M 199.5 0.5 L 199.5 584.5 M 209.5 0.5 L 209.5 584.5 M 219.5 0.5 L 219.5 584.5 M 229.5 0.5 L 229.5 584.5 M 249.5 0.5 L 249.5 584.5 M 259.5 0.5 L 259.5 584.5 M 269.5 0.5 L 269.5 584.5 M 279.5 0.5 L 279.5 584.5 M 299.5 0.5 L 299.5 584.5 M 309.5 0.5 L 309.5 584.5 M 319.5 0.5 L 319.5 584.5 M 329.5 0.5 L 329.5 584.5 M 349.5 0.5 L 349.5 584.5 M 359.5 0.5 L 359.5 584.5 M 369.5 0.5 L 369.5 584.5 M 379.5 0.5 L 379.5 584.5 M 399.5 0.5 L 399.5 584.5 M 409.5 0.5 L 409.5 584.5 M 419.5 0.5 L 419.5 584.5 M 429.5 0.5 L 429.5 584.5 M 449.5 0.5 L 449.5 584.5 M 459.5 0.5 L 459.5 584.5 M 469.5 0.5 L 469.5 584.5 M 479.5 0.5 L 479.5 584.5 M 499.5 0.5 L 499.5 584.5 M 509.5 0.5 L 509.5 584.5 M 519.5 0.5 L 519.5 584.5 M 529.5 0.5 L 529.5 584.5 M 549.5 0.5 L 549.5 584.5 M 559.5 0.5 L 559.5 584.5 M 569.5 0.5 L 569.5 584.5 M 579.5 0.5 L 579.5 584.5 M 599.5 0.5 L 599.5 584.5 M 609.5 0.5 L 609.5 584.5 M 619.5 0.5 L 619.5 584.5 M 629.5 0.5 L 629.5 584.5 M 649.5 0.5 L 649.5 584.5 M 659.5 0.5 L 659.5 584.5 M 669.5 0.5 L 669.5 584.5 M 679.5 0.5 L 679.5 584.5 M 699.5 0.5 L 699.5 584.5 M 709.5 0.5 L 709.5 584.5 M 719.5 0.5 L 719.5 584.5 M 729.5 0.5 L 729.5 584.5 M 749.5 0.5 L 749.5 584.5 M 759.5 0.5 L 759.5 584.5 M 769.5 0.5 L 769.5 584.5 M 779.5 0.5 L 779.5 584.5 M 799.5 0.5 L 799.5 584.5 M 809.5 0.5 L 809.5 584.5 M 819.5 0.5 L 819.5 584.5 M 828.5 0.5 L 828.5 584.5 M 848.5 0.5 L 848.5 584.5 M 858.5 0.5 L 858.5 584.5 M 868.5 0.5 L 868.5 584.5 M 878.5 0.5 L 878.5 584.5 M 898.5 0.5 L 898.5 584.5 M 908.5 0.5 L 908.5 584.5 M 918.5 0.5 L 918.5 584.5 M 928.5 0.5 L 928.5 584.5 M 948.5 0.5 L 948.5 584.5 M 958.5 0.5 L 958.5 584.5 M 968.5 0.5 L 968.5 584.5" stroke-opacity="0.23529411764705882" stroke-linecap="round" stroke-linejoin="round" stroke-miterlimit="10"/><path fill="none" stroke="rgb(192,192,192)" paint-order="fill stroke markers" d=" M 0.5 42.5 L 978.5 42.5 M 0.5 42.5 L 978.5 42.5 M 0.5 92.5 L 978.5 92.5 M 0.5 142.5 L 978.5 142.5 M 0.5 192.5 L 978.5 192.5 M 0.5 242.5 L 978.5 242.5 M 0.5 342.5 L 978.5 342.5 M 0.5 392.5 L 978.5 392.5 M 0.5 442.5 L 978.5 442.5 M 0.5 492.5 L 978.5 492.5 M 0.5 542.5 L 978.5 542.5" stroke-opacity="1" stroke-linecap="round" stroke-linejoin="round" stroke-miterlimit="10"/><path fill="none" stroke="rgb(192,192,192)" paint-order="fill stroke markers" d=" M 0.5 2.5 L 978.5 2.5 M 0.5 12.5 L 978.5 12.5 M 0.5 22.5 L 978.5 22.5 M 0.5 32.5 L 978.5 32.5 M 0.5 52.5 L 978.5 52.5 M 0.5 62.5 L 978.5 62.5 M 0.5 72.5 L 978.5 72.5 M 0.5 82.5 L 978.5 82.5 M 0.5 102.5 L 978.5 102.5 M 0.5 112.5 L 978.5 112.5 M 0.5 122.5 L 978.5 122.5 M 0.5 132.5 L 978.5 132.5 M 0.5 152.5 L 978.5 152.5 M 0.5 162.5 L 978.5 162.5 M 0.5 172.5 L 978.5 172.5 M 0.5 182.5 L 978.5 182.5 M 0.5 202.5 L 978.5 202.5 M 0.5 212.5 L 978.5 212.5 M 0.5 222.5 L 978.5 222.5 M 0.5 232.5 L 978.5 232.5 M 0.5 252.5 L 978.5 252.5 M 0.5 262.5 L 978.5 262.5 M 0.5 272.5 L 978.5 272.5 M 0.5 282.5 L 978.5 282.5 M 0.5 302.5 L 978.5 302.5 M 0.5 312.5 L 978.5 312.5 M 0.5 322.5 L 978.5 322.5 M 0.5 332.5 L 978.5 332.5 M 0.5 352.5 L 978.5 352.5 M 0.5 362.5 L 978.5 362.5 M 0.5 372.5 L 978.5 372.5 M 0.5 382.5 L 978.5 382.5 M 0.5 402.5 L 978.5 402.5 M 0.5 412.5 L 978.5 412.5 M 0.5 422.5 L 978.5 422.5 M 0.5 432.5 L 978.5 432.5 M 0.5 452.5 L 978.5 452.5 M 0.5 462.5 L 978.5 462.5 M 0.5 472.5 L 978.5 472.5 M 0.5 482.5 L 978.5 482.5 M 0.5 502.5 L 978.5 502.5 M 0.5 512.5 L 978.5 512.5 M 0.5 522.5 L 978.5 522.5 M 0.5 532.5 L 978.5 532.5 M 0.5 552.5 L 978.5 552.5 M 0.5 562.5 L 978.5 562.5 M 0.5 572.5 L 978.5 572.5 M 0.5 582.5 L 978.5 582.5" stroke-opacity="0.23529411764705882" stroke-linecap="round" stroke-linejoin="round" stroke-miterlimit="10"/><path fill="none" stroke="rgb(0,0,0)" paint-order="fill stroke markers" d=" M 0.5 292.5 L 976.5 292.5" stroke-opacity="1" stroke-miterlimit="10"/><path fill="none" stroke="rgb(0,0,0)" paint-order="fill stroke markers" d=" M 977.5 292.5 L 973.5 288.5" stroke-opacity="1" stroke-miterlimit="10"/><path fill="none" stroke="rgb(0,0,0)" paint-order="fill stroke markers" d=" M 977.5 292.5 L 973.5 296.5" stroke-opacity="1" stroke-miterlimit="10"/><text fill="rgb(0,0,0)" stroke="none" font-family="geogebra-sans-serif, sans-serif" font-size="12px" font-style="normal" font-weight="normal" text-decoration="normal" x="34" y="308" text-anchor="start" dominant-baseline="alphabetic" fill-opacity="1">–9</text><text fill="none" stroke="rgb(255,255,255)" font-family="geogebra-sans-serif, sans-serif" font-size="12px" font-style="normal" font-weight="normal" text-decoration="normal" x="34" y="308" text-anchor="start" dominant-baseline="alphabetic" stroke-opacity="1" stroke-linejoin="bevel" stroke-miterlimit="10" stroke-width="3">–9</text><text fill="rgb(0,0,0)" stroke="none" font-family="geogebra-sans-serif, sans-serif" font-size="12px" font-style="normal" font-weight="normal" text-decoration="normal" x="34" y="308" text-anchor="start" dominant-baseline="alphabetic" fill-opacity="1">–9</text><text fill="rgb(0,0,0)" stroke="none" font-family="geogebra-sans-serif, sans-serif" font-size="12px" font-style="normal" font-weight="normal" text-decoration="normal" x="84" y="308" text-anchor="start" dominant-baseline="alphabetic" fill-opacity="1">–8</text><text fill="none" stroke="rgb(255,255,255)" font-family="geogebra-sans-serif, sans-serif" font-size="12px" font-style="normal" font-weight="normal" text-decoration="normal" x="84" y="308" text-anchor="start" dominant-baseline="alphabetic" stroke-opacity="1" stroke-linejoin="bevel" stroke-miterlimit="10" stroke-width="3">–8</text><text fill="rgb(0,0,0)" stroke="none" font-family="geogebra-sans-serif, sans-serif" font-size="12px" font-style="normal" font-weight="normal" text-decoration="normal" x="84" y="308" text-anchor="start" dominant-baseline="alphabetic" fill-opacity="1">–8</text><text fill="rgb(0,0,0)" stroke="none" font-family="geogebra-sans-serif, sans-serif" font-size="12px" font-style="normal" font-weight="normal" text-decoration="normal" x="134" y="308" text-anchor="start" dominant-baseline="alphabetic" fill-opacity="1">–7</text><text fill="none" stroke="rgb(255,255,255)" font-family="geogebra-sans-serif, sans-serif" font-size="12px" font-style="normal" font-weight="normal" text-decoration="normal" x="134" y="308" text-anchor="start" dominant-baseline="alphabetic" stroke-opacity="1" stroke-linejoin="bevel" stroke-miterlimit="10" stroke-width="3">–7</text><text fill="rgb(0,0,0)" stroke="none" font-family="geogebra-sans-serif, sans-serif" font-size="12px" font-style="normal" font-weight="normal" text-decoration="normal" x="134" y="308" text-anchor="start" dominant-baseline="alphabetic" fill-opacity="1">–7</text><text fill="rgb(0,0,0)" stroke="none" font-family="geogebra-sans-serif, sans-serif" font-size="12px" font-style="normal" font-weight="normal" text-decoration="normal" x="184" y="308" text-anchor="start" dominant-baseline="alphabetic" fill-opacity="1">–6</text><text fill="none" stroke="rgb(255,255,255)" font-family="geogebra-sans-serif, sans-serif" font-size="12px" font-style="normal" font-weight="normal" text-decoration="normal" x="184" y="308" text-anchor="start" dominant-baseline="alphabetic" stroke-opacity="1" stroke-linejoin="bevel" stroke-miterlimit="10" stroke-width="3">–6</text><text fill="rgb(0,0,0)" stroke="none" font-family="geogebra-sans-serif, sans-serif" font-size="12px" font-style="normal" font-weight="normal" text-decoration="normal" x="184" y="308" text-anchor="start" dominant-baseline="alphabetic" fill-opacity="1">–6</text><text fill="rgb(0,0,0)" stroke="none" font-family="geogebra-sans-serif, sans-serif" font-size="12px" font-style="normal" font-weight="normal" text-decoration="normal" x="234" y="308" text-anchor="start" dominant-baseline="alphabetic" fill-opacity="1">–5</text><text fill="none" stroke="rgb(255,255,255)" font-family="geogebra-sans-serif, sans-serif" font-size="12px" font-style="normal" font-weight="normal" text-decoration="normal" x="234" y="308" text-anchor="start" dominant-baseline="alphabetic" stroke-opacity="1" stroke-linejoin="bevel" stroke-miterlimit="10" stroke-width="3">–5</text><text fill="rgb(0,0,0)" stroke="none" font-family="geogebra-sans-serif, sans-serif" font-size="12px" font-style="normal" font-weight="normal" text-decoration="normal" x="234" y="308" text-anchor="start" dominant-baseline="alphabetic" fill-opacity="1">–5</text><text fill="rgb(0,0,0)" stroke="none" font-family="geogebra-sans-serif, sans-serif" font-size="12px" font-style="normal" font-weight="normal" text-decoration="normal" x="284" y="308" text-anchor="start" dominant-baseline="alphabetic" fill-opacity="1">–4</text><text fill="none" stroke="rgb(255,255,255)" font-family="geogebra-sans-serif, sans-serif" font-size="12px" font-style="normal" font-weight="normal" text-decoration="normal" x="284" y="308" text-anchor="start" dominant-baseline="alphabetic" stroke-opacity="1" stroke-linejoin="bevel" stroke-miterlimit="10" stroke-width="3">–4</text><text fill="rgb(0,0,0)" stroke="none" font-family="geogebra-sans-serif, sans-serif" font-size="12px" font-style="normal" font-weight="normal" text-decoration="normal" x="284" y="308" text-anchor="start" dominant-baseline="alphabetic" fill-opacity="1">–4</text><text fill="rgb(0,0,0)" stroke="none" font-family="geogebra-sans-serif, sans-serif" font-size="12px" font-style="normal" font-weight="normal" text-decoration="normal" x="334" y="308" text-anchor="start" dominant-baseline="alphabetic" fill-opacity="1">–3</text><text fill="none" stroke="rgb(255,255,255)" font-family="geogebra-sans-serif, sans-serif" font-size="12px" font-style="normal" font-weight="normal" text-decoration="normal" x="334" y="308" text-anchor="start" dominant-baseline="alphabetic" stroke-opacity="1" stroke-linejoin="bevel" stroke-miterlimit="10" stroke-width="3">–3</text><text fill="rgb(0,0,0)" stroke="none" font-family="geogebra-sans-serif, sans-serif" font-size="12px" font-style="normal" font-weight="normal" text-decoration="normal" x="334" y="308" text-anchor="start" dominant-baseline="alphabetic" fill-opacity="1">–3</text><text fill="rgb(0,0,0)" stroke="none" font-family="geogebra-sans-serif, sans-serif" font-size="12px" font-style="normal" font-weight="normal" text-decoration="normal" x="384" y="308" text-anchor="start" dominant-baseline="alphabetic" fill-opacity="1">–2</text><text fill="none" stroke="rgb(255,255,255)" font-family="geogebra-sans-serif, sans-serif" font-size="12px" font-style="normal" font-weight="normal" text-decoration="normal" x="384" y="308" text-anchor="start" dominant-baseline="alphabetic" stroke-opacity="1" stroke-linejoin="bevel" stroke-miterlimit="10" stroke-width="3">–2</text><text fill="rgb(0,0,0)" stroke="none" font-family="geogebra-sans-serif, sans-serif" font-size="12px" font-style="normal" font-weight="normal" text-decoration="normal" x="384" y="308" text-anchor="start" dominant-baseline="alphabetic" fill-opacity="1">–2</text><text fill="rgb(0,0,0)" stroke="none" font-family="geogebra-sans-serif, sans-serif" font-size="12px" font-style="normal" font-weight="normal" text-decoration="normal" x="434" y="308" text-anchor="start" dominant-baseline="alphabetic" fill-opacity="1">–1</text><text fill="none" stroke="rgb(255,255,255)" font-family="geogebra-sans-serif, sans-serif" font-size="12px" font-style="normal" font-weight="normal" text-decoration="normal" x="434" y="308" text-anchor="start" dominant-baseline="alphabetic" stroke-opacity="1" stroke-linejoin="bevel" stroke-miterlimit="10" stroke-width="3">–1</text><text fill="rgb(0,0,0)" stroke="none" font-family="geogebra-sans-serif, sans-serif" font-size="12px" font-style="normal" font-weight="normal" text-decoration="normal" x="434" y="308" text-anchor="start" dominant-baseline="alphabetic" fill-opacity="1">–1</text><text fill="rgb(0,0,0)" stroke="none" font-family="geogebra-sans-serif, sans-serif" font-size="12px" font-style="normal" font-weight="normal" text-decoration="normal" x="537" y="308" text-anchor="start" dominant-baseline="alphabetic" fill-opacity="1">1</text><text fill="none" stroke="rgb(255,255,255)" font-family="geogebra-sans-serif, sans-serif" font-size="12px" font-style="normal" font-weight="normal" text-decoration="normal" x="537" y="308" text-anchor="start" dominant-baseline="alphabetic" stroke-opacity="1" stroke-linejoin="bevel" stroke-miterlimit="10" stroke-width="3">1</text><text fill="rgb(0,0,0)" stroke="none" font-family="geogebra-sans-serif, sans-serif" font-size="12px" font-style="normal" font-weight="normal" text-decoration="normal" x="537" y="308" text-anchor="start" dominant-baseline="alphabetic" fill-opacity="1">1</text><text fill="rgb(0,0,0)" stroke="none" font-family="geogebra-sans-serif, sans-serif" font-size="12px" font-style="normal" font-weight="normal" text-decoration="normal" x="587" y="308" text-anchor="start" dominant-baseline="alphabetic" fill-opacity="1">2</text><text fill="none" stroke="rgb(255,255,255)" font-family="geogebra-sans-serif, sans-serif" font-size="12px" font-style="normal" font-weight="normal" text-decoration="normal" x="587" y="308" text-anchor="start" dominant-baseline="alphabetic" stroke-opacity="1" stroke-linejoin="bevel" stroke-miterlimit="10" stroke-width="3">2</text><text fill="rgb(0,0,0)" stroke="none" font-family="geogebra-sans-serif, sans-serif" font-size="12px" font-style="normal" font-weight="normal" text-decoration="normal" x="587" y="308" text-anchor="start" dominant-baseline="alphabetic" fill-opacity="1">2</text><text fill="rgb(0,0,0)" stroke="none" font-family="geogebra-sans-serif, sans-serif" font-size="12px" font-style="normal" font-weight="normal" text-decoration="normal" x="637" y="308" text-anchor="start" dominant-baseline="alphabetic" fill-opacity="1">3</text><text fill="none" stroke="rgb(255,255,255)" font-family="geogebra-sans-serif, sans-serif" font-size="12px" font-style="normal" font-weight="normal" text-decoration="normal" x="637" y="308" text-anchor="start" dominant-baseline="alphabetic" stroke-opacity="1" stroke-linejoin="bevel" stroke-miterlimit="10" stroke-width="3">3</text><text fill="rgb(0,0,0)" stroke="none" font-family="geogebra-sans-serif, sans-serif" font-size="12px" font-style="normal" font-weight="normal" text-decoration="normal" x="637" y="308" text-anchor="start" dominant-baseline="alphabetic" fill-opacity="1">3</text><text fill="rgb(0,0,0)" stroke="none" font-family="geogebra-sans-serif, sans-serif" font-size="12px" font-style="normal" font-weight="normal" text-decoration="normal" x="687" y="308" text-anchor="start" dominant-baseline="alphabetic" fill-opacity="1">4</text><text fill="none" stroke="rgb(255,255,255)" font-family="geogebra-sans-serif, sans-serif" font-size="12px" font-style="normal" font-weight="normal" text-decoration="normal" x="687" y="308" text-anchor="start" dominant-baseline="alphabetic" stroke-opacity="1" stroke-linejoin="bevel" stroke-miterlimit="10" stroke-width="3">4</text><text fill="rgb(0,0,0)" stroke="none" font-family="geogebra-sans-serif, sans-serif" font-size="12px" font-style="normal" font-weight="normal" text-decoration="normal" x="687" y="308" text-anchor="start" dominant-baseline="alphabetic" fill-opacity="1">4</text><text fill="rgb(0,0,0)" stroke="none" font-family="geogebra-sans-serif, sans-serif" font-size="12px" font-style="normal" font-weight="normal" text-decoration="normal" x="737" y="308" text-anchor="start" dominant-baseline="alphabetic" fill-opacity="1">5</text><text fill="none" stroke="rgb(255,255,255)" font-family="geogebra-sans-serif, sans-serif" font-size="12px" font-style="normal" font-weight="normal" text-decoration="normal" x="737" y="308" text-anchor="start" dominant-baseline="alphabetic" stroke-opacity="1" stroke-linejoin="bevel" stroke-miterlimit="10" stroke-width="3">5</text><text fill="rgb(0,0,0)" stroke="none" font-family="geogebra-sans-serif, sans-serif" font-size="12px" font-style="normal" font-weight="normal" text-decoration="normal" x="737" y="308" text-anchor="start" dominant-baseline="alphabetic" fill-opacity="1">5</text><text fill="rgb(0,0,0)" stroke="none" font-family="geogebra-sans-serif, sans-serif" font-size="12px" font-style="normal" font-weight="normal" text-decoration="normal" x="787" y="308" text-anchor="start" dominant-baseline="alphabetic" fill-opacity="1">6</text><text fill="none" stroke="rgb(255,255,255)" font-family="geogebra-sans-serif, sans-serif" font-size="12px" font-style="normal" font-weight="normal" text-decoration="normal" x="787" y="308" text-anchor="start" dominant-baseline="alphabetic" stroke-opacity="1" stroke-linejoin="bevel" stroke-miterlimit="10" stroke-width="3">6</text><text fill="rgb(0,0,0)" stroke="none" font-family="geogebra-sans-serif, sans-serif" font-size="12px" font-style="normal" font-weight="normal" text-decoration="normal" x="787" y="308" text-anchor="start" dominant-baseline="alphabetic" fill-opacity="1">6</text><text fill="rgb(0,0,0)" stroke="none" font-family="geogebra-sans-serif, sans-serif" font-size="12px" font-style="normal" font-weight="normal" text-decoration="normal" x="837" y="308" text-anchor="start" dominant-baseline="alphabetic" fill-opacity="1">7</text><text fill="none" stroke="rgb(255,255,255)" font-family="geogebra-sans-serif, sans-serif" font-size="12px" font-style="normal" font-weight="normal" text-decoration="normal" x="837" y="308" text-anchor="start" dominant-baseline="alphabetic" stroke-opacity="1" stroke-linejoin="bevel" stroke-miterlimit="10" stroke-width="3">7</text><text fill="rgb(0,0,0)" stroke="none" font-family="geogebra-sans-serif, sans-serif" font-size="12px" font-style="normal" font-weight="normal" text-decoration="normal" x="837" y="308" text-anchor="start" dominant-baseline="alphabetic" fill-opacity="1">7</text><text fill="rgb(0,0,0)" stroke="none" font-family="geogebra-sans-serif, sans-serif" font-size="12px" font-style="normal" font-weight="normal" text-decoration="normal" x="887" y="308" text-anchor="start" dominant-baseline="alphabetic" fill-opacity="1">8</text><text fill="none" stroke="rgb(255,255,255)" font-family="geogebra-sans-serif, sans-serif" font-size="12px" font-style="normal" font-weight="normal" text-decoration="normal" x="887" y="308" text-anchor="start" dominant-baseline="alphabetic" stroke-opacity="1" stroke-linejoin="bevel" stroke-miterlimit="10" stroke-width="3">8</text><text fill="rgb(0,0,0)" stroke="none" font-family="geogebra-sans-serif, sans-serif" font-size="12px" font-style="normal" font-weight="normal" text-decoration="normal" x="887" y="308" text-anchor="start" dominant-baseline="alphabetic" fill-opacity="1">8</text><text fill="rgb(0,0,0)" stroke="none" font-family="geogebra-sans-serif, sans-serif" font-size="12px" font-style="normal" font-weight="normal" text-decoration="normal" x="937" y="308" text-anchor="start" dominant-baseline="alphabetic" fill-opacity="1">9</text><text fill="none" stroke="rgb(255,255,255)" font-family="geogebra-sans-serif, sans-serif" font-size="12px" font-style="normal" font-weight="normal" text-decoration="normal" x="937" y="308" text-anchor="start" dominant-baseline="alphabetic" stroke-opacity="1" stroke-linejoin="bevel" stroke-miterlimit="10" stroke-width="3">9</text><text fill="rgb(0,0,0)" stroke="none" font-family="geogebra-sans-serif, sans-serif" font-size="12px" font-style="normal" font-weight="normal" text-decoration="normal" x="937" y="308" text-anchor="start" dominant-baseline="alphabetic" fill-opacity="1">9</text><text fill="rgb(0,0,0)" stroke="none" font-family="geogebra-sans-serif, sans-serif" font-size="12px" font-style="normal" font-weight="normal" text-decoration="normal" x="486" y="308" text-anchor="start" dominant-baseline="alphabetic" fill-opacity="1">0</text><text fill="none" stroke="rgb(255,255,255)" font-family="geogebra-sans-serif, sans-serif" font-size="12px" font-style="normal" font-weight="normal" text-decoration="normal" x="486" y="308" text-anchor="start" dominant-baseline="alphabetic" stroke-opacity="1" stroke-linejoin="bevel" stroke-miterlimit="10" stroke-width="3">0</text><text fill="rgb(0,0,0)" stroke="none" font-family="geogebra-sans-serif, sans-serif" font-size="12px" font-style="normal" font-weight="normal" text-decoration="normal" x="486" y="308" text-anchor="start" dominant-baseline="alphabetic" fill-opacity="1">0</text></g></g></svg>