<svg version="1.1" xmlns="http://www.w3.org/2000/svg" xmlns:xlink="http://www.w3.org/1999/xlink" width="978" height="688"><defs><clipPath id="zvCTsbRDhDwN"><path fill="none" stroke="none" d=" M 0 0 L 978 0 L 978 688 L 0 688 L 0 0 Z"/></clipPath></defs><g transform="scale(1,1)" clip-path="url(#zvCTsbRDhDwN)"><g><rect fill="rgb(255,255,255)" stroke="none" x="0" y="0" width="978" height="688" fill-opacity="1"/><path fill="none" stroke="rgb(192,192,192)" paint-order="fill stroke markers" d=" M 171.5 0.5 L 171.5 688.5 M 171.5 0.5 L 171.5 688.5 M 753.5 0.5 L 753.5 688.5" stroke-opacity="1" stroke-linecap="round" stroke-linejoin="round" stroke-miterlimit="10"/><path fill="none" stroke="rgb(192,192,192)" paint-order="fill stroke markers" d=" M 55.5 0.5 L 55.5 688.5 M 113.5 0.5 L 113.5 688.5 M 229.5 0.5 L 229.5 688.5 M 288.5 0.5 L 288.5 688.5 M 346.5 0.5 L 346.5 688.5 M 404.5 0.5 L 404.5 688.5 M 520.5 0.5 L 520.5 688.5 M 579.5 0.5 L 579.5 688.5 M 637.5 0.5 L 637.5 688.5 M 695.5 0.5 L 695.5 688.5 M 812.5 0.5 L 812.5 688.5 M 870.5 0.5 L 870.5 688.5 M 928.5 0.5 L 928.5 688.5" stroke-opacity="0.23529411764705882" stroke-linecap="round" stroke-linejoin="round" stroke-miterlimit="10"/><path fill="none" stroke="rgb(192,192,192)" paint-order="fill stroke markers" d=" M 0.5 58.5 L 978.5 58.5 M 0.5 58.5 L 978.5 58.5 M 0.5 640.5 L 978.5 640.5" stroke-opacity="1" stroke-linecap="round" stroke-linejoin="round" stroke-miterlimit="10"/><path fill="none" stroke="rgb(192,192,192)" paint-order="fill stroke markers" d=" M 0.5 58.5 L 978.5 58.5 M 0.5 116.5 L 978.5 116.5 M 0.5 174.5 L 978.5 174.5 M 0.5 232.5 L 978.5 232.5 M 0.5 290.5 L 978.5 290.5 M 0.5 407.5 L 978.5 407.5 M 0.5 465.5 L 978.5 465.5 M 0.5 523.5 L 978.5 523.5 M 0.5 582.5 L 978.5 582.5" stroke-opacity="0.23529411764705882" stroke-linecap="round" stroke-linejoin="round" stroke-miterlimit="10"/><path fill="none" stroke="rgb(0,0,0)" paint-order="fill stroke markers" d=" M 462.5 2.5 L 462.5 688.5" stroke-opacity="1" stroke-miterlimit="10"/><path fill="none" stroke="rgb(0,0,0)" paint-order="fill stroke markers" d=" M 462.5 1.5 L 458.5 5.5" stroke-opacity="1" stroke-miterlimit="10"/><path fill="none" stroke="rgb(0,0,0)" paint-order="fill stroke markers" d=" M 462.5 1.5 L 466.5 5.5" stroke-opacity="1" stroke-miterlimit="10"/><path fill="none" stroke="rgb(0,0,0)" paint-order="fill stroke markers" d=" M 0.5 349.5 L 976.5 349.5" stroke-opacity="1" stroke-miterlimit="10"/><path fill="none" stroke="rgb(0,0,0)" paint-order="fill stroke markers" d=" M 977.5 349.5 L 973.5 345.5" stroke-opacity="1" stroke-miterlimit="10"/><path fill="none" stroke="rgb(0,0,0)" paint-order="fill stroke markers" d=" M 977.5 349.5 L 973.5 353.5" stroke-opacity="1" stroke-miterlimit="10"/><text fill="rgb(0,0,0)" stroke="none" font-family="geogebra-sans-serif, sans-serif" font-size="12px" font-style="normal" font-weight="normal" text-decoration="normal" x="166" y="365" text-anchor="start" dominant-baseline="alphabetic" fill-opacity="1">–1</text><text fill="none" stroke="rgb(255,255,255)" font-family="geogebra-sans-serif, sans-serif" font-size="12px" font-style="normal" font-weight="normal" text-decoration="normal" x="166" y="365" text-anchor="start" dominant-baseline="alphabetic" stroke-opacity="1" stroke-linejoin="bevel" stroke-miterlimit="10" stroke-width="3">–1</text><text fill="rgb(0,0,0)" stroke="none" font-family="geogebra-sans-serif, sans-serif" font-size="12px" font-style="normal" font-weight="normal" text-decoration="normal" x="166" y="365" text-anchor="start" dominant-baseline="alphabetic" fill-opacity="1">–1</text><text fill="rgb(0,0,0)" stroke="none" font-family="geogebra-sans-serif, sans-serif" font-size="12px" font-style="normal" font-weight="normal" text-decoration="normal" x="751" y="365" text-anchor="start" dominant-baseline="alphabetic" fill-opacity="1">1</text><text fill="none" stroke="rgb(255,255,255)" font-family="geogebra-sans-serif, sans-serif" font-size="12px" font-style="normal" font-weight="normal" text-decoration="normal" x="751" y="365" text-anchor="start" dominant-baseline="alphabetic" stroke-opacity="1" stroke-linejoin="bevel" stroke-miterlimit="10" stroke-width="3">1</text><text fill="rgb(0,0,0)" stroke="none" font-family="geogebra-sans-serif, sans-serif" font-size="12px" font-style="normal" font-weight="normal" text-decoration="normal" x="751" y="365" text-anchor="start" dominant-baseline="alphabetic" fill-opacity="1">1</text><text fill="rgb(0,0,0)" stroke="none" font-family="geogebra-sans-serif, sans-serif" font-size="12px" font-style="normal" font-weight="normal" text-decoration="normal" x="442" y="645" text-anchor="start" dominant-baseline="alphabetic" fill-opacity="1">–1</text><text fill="none" stroke="rgb(255,255,255)" font-family="geogebra-sans-serif, sans-serif" font-size="12px" font-style="normal" font-weight="normal" text-decoration="normal" x="442" y="645" text-anchor="start" dominant-baseline="alphabetic" stroke-opacity="1" stroke-linejoin="bevel" stroke-miterlimit="10" stroke-width="3">–1</text><text fill="rgb(0,0,0)" stroke="none" font-family="geogebra-sans-serif, sans-serif" font-size="12px" font-style="normal" font-weight="normal" text-decoration="normal" x="442" y="645" text-anchor="start" dominant-baseline="alphabetic" fill-opacity="1">–1</text><text fill="rgb(0,0,0)" stroke="none" font-family="geogebra-sans-serif, sans-serif" font-size="12px" font-style="normal" font-weight="normal" text-decoration="normal" x="448" y="63" text-anchor="start" dominant-baseline="alphabetic" fill-opacity="1">1</text><text fill="none" stroke="rgb(255,255,255)" font-family="geogebra-sans-serif, sans-serif" font-size="12px" font-style="normal" font-weight="normal" text-decoration="normal" x="448" y="63" text-anchor="start" dominant-baseline="alphabetic" stroke-opacity="1" stroke-linejoin="bevel" stroke-miterlimit="10" stroke-width="3">1</text><text fill="rgb(0,0,0)" stroke="none" font-family="geogebra-sans-serif, sans-serif" font-size="12px" font-style="normal" font-weight="normal" text-decoration="normal" x="448" y="63" text-anchor="start" dominant-baseline="alphabetic" fill-opacity="1">1</text><text fill="rgb(0,0,0)" stroke="none" font-family="geogebra-sans-serif, sans-serif" font-size="12px" font-style="normal" font-weight="normal" text-decoration="normal" x="448" y="365" text-anchor="start" dominant-baseline="alphabetic" fill-opacity="1">0</text><text fill="none" stroke="rgb(255,255,255)" font-family="geogebra-sans-serif, sans-serif" font-size="12px" font-style="normal" font-weight="normal" text-decoration="normal" x="448" y="365" text-anchor="start" dominant-baseline="alphabetic" stroke-opacity="1" stroke-linejoin="bevel" stroke-miterlimit="10" stroke-width="3">0</text><text fill="rgb(0,0,0)" stroke="none" font-family="geogebra-sans-serif, sans-serif" font-size="12px" font-style="normal" font-weight="normal" text-decoration="normal" x="448" y="365" text-anchor="start" dominant-baseline="alphabetic" fill-opacity="1">0</text><path fill="none" stroke="rgb(0,0,0)" paint-order="fill stroke markers" d=" M 753.7879911057291 349.13477994761337 C 753.7879911057291 509.9131315381103 623.4513849869004 640.2497376569391 462.67303339640375 640.2497376569391 C 301.894681805907 640.2497376569391 171.55807568707843 509.9131315381103 171.55807568707843 349.13477994761337 C 171.55807568707843 188.35642835711639 301.894681805907 58.01982223828759 462.67303339640375 58.01982223828759 C 623.4513849869004 58.01982223828759 753.7879911057291 188.35642835711639 753.7879911057291 349.13477994761337 Z" stroke-opacity="0.6980392156862745" stroke-linecap="round" stroke-linejoin="round" stroke-miterlimit="10" stroke-width="2.5"/><path fill="rgb(125,125,255)" stroke="none" paint-order="stroke fill markers" d=" M 467.67303339640375 349.13477994761337 C 467.67303339640375 351.8962036967673 465.4344571455577 354.13477994761337 462.67303339640375 354.13477994761337 C 459.9116096472498 354.13477994761337 457.67303339640375 351.8962036967673 457.67303339640375 349.13477994761337 C 457.67303339640375 346.3733561984594 459.9116096472498 344.13477994761337 462.67303339640375 344.13477994761337 C 465.4344571455577 344.13477994761337 467.67303339640375 346.3733561984594 467.67303339640375 349.13477994761337 Z" fill-opacity="1"/><path fill="none" stroke="rgb(0,0,0)" paint-order="fill stroke markers" d=" M 467.67303339640375 349.13477994761337 C 467.67303339640375 351.8962036967673 465.4344571455577 354.13477994761337 462.67303339640375 354.13477994761337 C 459.9116096472498 354.13477994761337 457.67303339640375 351.8962036967673 457.67303339640375 349.13477994761337 C 457.67303339640375 346.3733561984594 459.9116096472498 344.13477994761337 462.67303339640375 344.13477994761337 C 465.4344571455577 344.13477994761337 467.67303339640375 346.3733561984594 467.67303339640375 349.13477994761337 Z" stroke-opacity="1" stroke-linecap="round" stroke-linejoin="round" stroke-miterlimit="10"/><text fill="rgb(125,125,255)" stroke="none" font-family="geogebra-sans-serif, sans-serif" font-size="16px" font-style="normal" font-weight="normal" text-decoration="normal" x="467" y="339" text-anchor="start" dominant-baseline="alphabetic" fill-opacity="1">O</text><text fill="none" stroke="rgb(255,255,255)" font-family="geogebra-sans-serif, sans-serif" font-size="16px" font-style="normal" font-weight="normal" text-decoration="normal" x="467" y="339" text-anchor="start" dominant-baseline="alphabetic" stroke-opacity="1" stroke-linejoin="bevel" stroke-miterlimit="10" stroke-width="3">O</text><text fill="rgb(125,125,255)" stroke="none" font-family="geogebra-sans-serif, sans-serif" font-size="16px" font-style="normal" font-weight="normal" text-decoration="normal" x="467" y="339" text-anchor="start" dominant-baseline="alphabetic" fill-opacity="1">O</text></g></g></svg>